<?xml version="1.0" encoding="UTF-8" standalone="no"?>
<!DOCTYPE svg PUBLIC "-//W3C//DTD SVG 1.1//EN"
 "http://www.w3.org/Graphics/SVG/1.1/DTD/svg11.dtd">
<!-- Generated by graphviz version 13.1.2 (0)
 -->
<!-- Pages: 1 -->
<svg width="1372pt" height="914pt"
 viewBox="0.00 0.00 1372.00 914.00" xmlns="http://www.w3.org/2000/svg" xmlns:xlink="http://www.w3.org/1999/xlink">
<g id="graph0" class="graph" transform="scale(1 1) rotate(0) translate(4 910)">
<polygon fill="white" stroke="none" points="-4,4 -4,-910 1367.75,-910 1367.75,4 -4,4"/>
<!-- coeffs -->
<g id="node1" class="node">
<title>coeffs</title>
<path fill="lightyellow" stroke="black" d="M757.25,-906C757.25,-906 666.25,-906 666.25,-906 660.25,-906 654.25,-900 654.25,-894 654.25,-894 654.25,-875.5 654.25,-875.5 654.25,-869.5 660.25,-863.5 666.25,-863.5 666.25,-863.5 757.25,-863.5 757.25,-863.5 763.25,-863.5 769.25,-869.5 769.25,-875.5 769.25,-875.5 769.25,-894 769.25,-894 769.25,-900 763.25,-906 757.25,-906"/>
<text xml:space="preserve" text-anchor="middle" x="711.75" y="-888.7" font-family="monospace" font-size="14.00">coeffs: func</text>
<text xml:space="preserve" text-anchor="middle" x="711.75" y="-871.45" font-family="monospace" font-size="14.00">_coeffs</text>
</g>
<!-- n49 -->
<g id="node6" class="node">
<title>n49</title>
<path fill="white" stroke="black" d="M708.88,-827.5C708.88,-827.5 642.62,-827.5 642.62,-827.5 636.62,-827.5 630.62,-821.5 630.62,-815.5 630.62,-815.5 630.62,-797 630.62,-797 630.62,-791 636.62,-785 642.62,-785 642.62,-785 708.88,-785 708.88,-785 714.88,-785 720.88,-791 720.88,-797 720.88,-797 720.88,-815.5 720.88,-815.5 720.88,-821.5 714.88,-827.5 708.88,-827.5"/>
<text xml:space="preserve" text-anchor="middle" x="675.75" y="-810.2" font-family="monospace" font-size="14.00">n49</text>
<text xml:space="preserve" text-anchor="middle" x="675.75" y="-792.95" font-family="monospace" font-size="14.00">coeffs[0]</text>
</g>
<!-- coeffs&#45;&gt;n49 -->
<g id="edge1" class="edge">
<title>coeffs&#45;&gt;n49</title>
<path fill="none" stroke="black" d="M702.1,-863.25C698.47,-855.53 694.26,-846.58 690.28,-838.12"/>
<polygon fill="black" stroke="black" points="693.49,-836.73 686.07,-829.18 687.16,-839.72 693.49,-836.73"/>
</g>
<!-- n50 -->
<g id="node7" class="node">
<title>n50</title>
<path fill="white" stroke="black" d="M690.88,-513.5C690.88,-513.5 624.62,-513.5 624.62,-513.5 618.62,-513.5 612.62,-507.5 612.62,-501.5 612.62,-501.5 612.62,-483 612.62,-483 612.62,-477 618.62,-471 624.62,-471 624.62,-471 690.88,-471 690.88,-471 696.88,-471 702.88,-477 702.88,-483 702.88,-483 702.88,-501.5 702.88,-501.5 702.88,-507.5 696.88,-513.5 690.88,-513.5"/>
<text xml:space="preserve" text-anchor="middle" x="657.75" y="-496.2" font-family="monospace" font-size="14.00">n50</text>
<text xml:space="preserve" text-anchor="middle" x="657.75" y="-478.95" font-family="monospace" font-size="14.00">coeffs[1]</text>
</g>
<!-- coeffs&#45;&gt;n50 -->
<g id="edge2" class="edge">
<title>coeffs&#45;&gt;n50</title>
<path fill="none" stroke="black" d="M719.96,-863.07C730.86,-833.69 748.75,-778 748.75,-728.75 748.75,-728.75 748.75,-728.75 748.75,-648.25 748.75,-598.55 713.52,-550.69 686.9,-521.62"/>
<polygon fill="black" stroke="black" points="689.76,-519.55 680.35,-514.68 684.67,-524.36 689.76,-519.55"/>
</g>
<!-- means -->
<g id="node2" class="node">
<title>means</title>
<path fill="lightgreen" stroke="black" d="M600.25,-827.5C600.25,-827.5 509.25,-827.5 509.25,-827.5 503.25,-827.5 497.25,-821.5 497.25,-815.5 497.25,-815.5 497.25,-797 497.25,-797 497.25,-791 503.25,-785 509.25,-785 509.25,-785 600.25,-785 600.25,-785 606.25,-785 612.25,-791 612.25,-797 612.25,-797 612.25,-815.5 612.25,-815.5 612.25,-821.5 606.25,-827.5 600.25,-827.5"/>
<text xml:space="preserve" text-anchor="middle" x="554.75" y="-810.2" font-family="monospace" font-size="14.00">means: const</text>
<text xml:space="preserve" text-anchor="middle" x="554.75" y="-792.95" font-family="monospace" font-size="14.00">0.0</text>
</g>
<!-- n51 -->
<g id="node8" class="node">
<title>n51</title>
<path fill="white" stroke="black" d="M709.12,-749C709.12,-749 626.38,-749 626.38,-749 620.38,-749 614.38,-743 614.38,-737 614.38,-737 614.38,-718.5 614.38,-718.5 614.38,-712.5 620.38,-706.5 626.38,-706.5 626.38,-706.5 709.12,-706.5 709.12,-706.5 715.12,-706.5 721.12,-712.5 721.12,-718.5 721.12,-718.5 721.12,-737 721.12,-737 721.12,-743 715.12,-749 709.12,-749"/>
<text xml:space="preserve" text-anchor="middle" x="667.75" y="-731.7" font-family="monospace" font-size="14.00">n51</text>
<text xml:space="preserve" text-anchor="middle" x="667.75" y="-714.45" font-family="monospace" font-size="14.00">n49 &#45; means</text>
</g>
<!-- means&#45;&gt;n51 -->
<g id="edge4" class="edge">
<title>means&#45;&gt;n51</title>
<path fill="none" stroke="black" d="M585.33,-784.55C598.39,-775.7 613.82,-765.26 627.77,-755.82"/>
<polygon fill="black" stroke="black" points="629.57,-758.82 635.89,-750.32 625.65,-753.02 629.57,-758.82"/>
</g>
<!-- ext_coeffs_0 -->
<g id="node3" class="node">
<title>ext_coeffs_0</title>
<path fill="lightyellow" stroke="black" d="M1141,-435C1141,-435 1000.5,-435 1000.5,-435 994.5,-435 988.5,-429 988.5,-423 988.5,-423 988.5,-404.5 988.5,-404.5 988.5,-398.5 994.5,-392.5 1000.5,-392.5 1000.5,-392.5 1141,-392.5 1141,-392.5 1147,-392.5 1153,-398.5 1153,-404.5 1153,-404.5 1153,-423 1153,-423 1153,-429 1147,-435 1141,-435"/>
<text xml:space="preserve" text-anchor="middle" x="1070.75" y="-417.7" font-family="monospace" font-size="14.00">ext_coeffs_0: func</text>
<text xml:space="preserve" text-anchor="middle" x="1070.75" y="-400.45" font-family="monospace" font-size="14.00">coeffs</text>
</g>
<!-- n101 -->
<g id="node24" class="node">
<title>n101</title>
<path fill="white" stroke="black" d="M791.88,-356.5C791.88,-356.5 659.62,-356.5 659.62,-356.5 653.62,-356.5 647.62,-350.5 647.62,-344.5 647.62,-344.5 647.62,-326 647.62,-326 647.62,-320 653.62,-314 659.62,-314 659.62,-314 791.88,-314 791.88,-314 797.88,-314 803.88,-320 803.88,-326 803.88,-326 803.88,-344.5 803.88,-344.5 803.88,-350.5 797.88,-356.5 791.88,-356.5"/>
<text xml:space="preserve" text-anchor="middle" x="725.75" y="-339.2" font-family="monospace" font-size="14.00">n101</text>
<text xml:space="preserve" text-anchor="middle" x="725.75" y="-321.95" font-family="monospace" font-size="14.00">sum(ccw * FcwNmy)</text>
</g>
<!-- ext_coeffs_0&#45;&gt;n101 -->
<g id="edge22" class="edge">
<title>ext_coeffs_0&#45;&gt;n101</title>
<path fill="none" stroke="black" d="M988.41,-394.41C985.49,-393.76 982.6,-393.13 979.75,-392.5 909.33,-377.03 889.21,-373.29 814.82,-356.72"/>
<polygon fill="black" stroke="black" points="815.95,-353.39 805.43,-354.63 814.42,-360.22 815.95,-353.39"/>
</g>
<!-- n102 -->
<g id="node25" class="node">
<title>n102</title>
<path fill="white" stroke="black" d="M983.12,-356.5C983.12,-356.5 834.38,-356.5 834.38,-356.5 828.38,-356.5 822.38,-350.5 822.38,-344.5 822.38,-344.5 822.38,-326 822.38,-326 822.38,-320 828.38,-314 834.38,-314 834.38,-314 983.12,-314 983.12,-314 989.12,-314 995.12,-320 995.12,-326 995.12,-326 995.12,-344.5 995.12,-344.5 995.12,-350.5 989.12,-356.5 983.12,-356.5"/>
<text xml:space="preserve" text-anchor="middle" x="908.75" y="-339.2" font-family="monospace" font-size="14.00">n102</text>
<text xml:space="preserve" text-anchor="middle" x="908.75" y="-321.95" font-family="monospace" font-size="14.00">c.T @ FtNmFcw @ ccw</text>
</g>
<!-- ext_coeffs_0&#45;&gt;n102 -->
<g id="edge26" class="edge">
<title>ext_coeffs_0&#45;&gt;n102</title>
<path fill="none" stroke="black" d="M1026.91,-392.05C1007.19,-382.74 983.72,-371.65 962.91,-361.83"/>
<polygon fill="black" stroke="black" points="964.53,-358.72 953.99,-357.61 961.54,-365.05 964.53,-358.72"/>
</g>
<!-- n103 -->
<g id="node26" class="node">
<title>n103</title>
<path fill="white" stroke="black" d="M1257.62,-356.5C1257.62,-356.5 1075.88,-356.5 1075.88,-356.5 1069.88,-356.5 1063.88,-350.5 1063.88,-344.5 1063.88,-344.5 1063.88,-326 1063.88,-326 1063.88,-320 1069.88,-314 1075.88,-314 1075.88,-314 1257.62,-314 1257.62,-314 1263.62,-314 1269.62,-320 1269.62,-326 1269.62,-326 1269.62,-344.5 1269.62,-344.5 1269.62,-350.5 1263.62,-356.5 1257.62,-356.5"/>
<text xml:space="preserve" text-anchor="middle" x="1166.75" y="-339.2" font-family="monospace" font-size="14.00">n103</text>
<text xml:space="preserve" text-anchor="middle" x="1166.75" y="-321.95" font-family="monospace" font-size="14.00">ccw.T @ FcwtNmFcw @ ccw</text>
</g>
<!-- ext_coeffs_0&#45;&gt;n103 -->
<g id="edge27" class="edge">
<title>ext_coeffs_0&#45;&gt;n103</title>
<path fill="none" stroke="black" d="M1096.73,-392.05C1107.51,-383.46 1120.18,-373.36 1131.76,-364.14"/>
<polygon fill="black" stroke="black" points="1133.93,-366.88 1139.57,-357.91 1129.56,-361.41 1133.93,-366.88"/>
</g>
<!-- n47 -->
<g id="node4" class="node">
<title>n47</title>
<path fill="lightgreen" stroke="black" d="M111.25,-827.5C111.25,-827.5 20.25,-827.5 20.25,-827.5 14.25,-827.5 8.25,-821.5 8.25,-815.5 8.25,-815.5 8.25,-797 8.25,-797 8.25,-791 14.25,-785 20.25,-785 20.25,-785 111.25,-785 111.25,-785 117.25,-785 123.25,-791 123.25,-797 123.25,-797 123.25,-815.5 123.25,-815.5 123.25,-821.5 117.25,-827.5 111.25,-827.5"/>
<text xml:space="preserve" text-anchor="middle" x="65.75" y="-810.2" font-family="monospace" font-size="14.00">n47: const</text>
<text xml:space="preserve" text-anchor="middle" x="65.75" y="-792.95" font-family="monospace" font-size="14.00">array(5, 88)</text>
</g>
<!-- n54 -->
<g id="node12" class="node">
<title>n54</title>
<path fill="white" stroke="black" d="M119.5,-749C119.5,-749 12,-749 12,-749 6,-749 0,-743 0,-737 0,-737 0,-718.5 0,-718.5 0,-712.5 6,-706.5 12,-706.5 12,-706.5 119.5,-706.5 119.5,-706.5 125.5,-706.5 131.5,-712.5 131.5,-718.5 131.5,-718.5 131.5,-737 131.5,-737 131.5,-743 125.5,-749 119.5,-749"/>
<text xml:space="preserve" text-anchor="middle" x="65.75" y="-731.7" font-family="monospace" font-size="14.00">n54</text>
<text xml:space="preserve" text-anchor="middle" x="65.75" y="-714.45" font-family="monospace" font-size="14.00">sum(c * NmFty)</text>
</g>
<!-- n47&#45;&gt;n54 -->
<g id="edge10" class="edge">
<title>n47&#45;&gt;n54</title>
<path fill="none" stroke="black" d="M65.75,-784.75C65.75,-777.37 65.75,-768.87 65.75,-760.75"/>
<polygon fill="black" stroke="black" points="69.25,-760.82 65.75,-750.82 62.25,-760.82 69.25,-760.82"/>
</g>
<!-- n48 -->
<g id="node5" class="node">
<title>n48</title>
<path fill="lightgreen" stroke="black" d="M397.75,-827.5C397.75,-827.5 273.75,-827.5 273.75,-827.5 267.75,-827.5 261.75,-821.5 261.75,-815.5 261.75,-815.5 261.75,-797 261.75,-797 261.75,-791 267.75,-785 273.75,-785 273.75,-785 397.75,-785 397.75,-785 403.75,-785 409.75,-791 409.75,-797 409.75,-797 409.75,-815.5 409.75,-815.5 409.75,-821.5 403.75,-827.5 397.75,-827.5"/>
<text xml:space="preserve" text-anchor="middle" x="335.75" y="-810.2" font-family="monospace" font-size="14.00">n48: const</text>
<text xml:space="preserve" text-anchor="middle" x="335.75" y="-792.95" font-family="monospace" font-size="14.00">array(5, 88, 88)</text>
</g>
<!-- n53 -->
<g id="node11" class="node">
<title>n53</title>
<path fill="white" stroke="black" d="M393.62,-749C393.62,-749 277.88,-749 277.88,-749 271.88,-749 265.88,-743 265.88,-737 265.88,-737 265.88,-718.5 265.88,-718.5 265.88,-712.5 271.88,-706.5 277.88,-706.5 277.88,-706.5 393.62,-706.5 393.62,-706.5 399.62,-706.5 405.62,-712.5 405.62,-718.5 405.62,-718.5 405.62,-737 405.62,-737 405.62,-743 399.62,-749 393.62,-749"/>
<text xml:space="preserve" text-anchor="middle" x="335.75" y="-731.7" font-family="monospace" font-size="14.00">n53</text>
<text xml:space="preserve" text-anchor="middle" x="335.75" y="-714.45" font-family="monospace" font-size="14.00">c.T @ FtNmF @ c</text>
</g>
<!-- n48&#45;&gt;n53 -->
<g id="edge8" class="edge">
<title>n48&#45;&gt;n53</title>
<path fill="none" stroke="black" d="M335.75,-784.75C335.75,-777.37 335.75,-768.87 335.75,-760.75"/>
<polygon fill="black" stroke="black" points="339.25,-760.82 335.75,-750.82 332.25,-760.82 339.25,-760.82"/>
</g>
<!-- n49&#45;&gt;n51 -->
<g id="edge3" class="edge">
<title>n49&#45;&gt;n51</title>
<path fill="none" stroke="black" d="M673.61,-784.75C672.83,-777.37 671.95,-768.87 671.1,-760.75"/>
<polygon fill="black" stroke="black" points="674.58,-760.39 670.06,-750.81 667.62,-761.12 674.58,-760.39"/>
</g>
<!-- n49&#45;&gt;n53 -->
<g id="edge7" class="edge">
<title>n49&#45;&gt;n53</title>
<path fill="none" stroke="black" d="M630.28,-787.52C627.41,-786.61 624.55,-785.76 621.75,-785 535.07,-761.43 508.09,-768.04 417.02,-749.37"/>
<polygon fill="black" stroke="black" points="417.88,-745.98 407.37,-747.35 416.44,-752.83 417.88,-745.98"/>
</g>
<!-- n49&#45;&gt;n54 -->
<g id="edge9" class="edge">
<title>n49&#45;&gt;n54</title>
<path fill="none" stroke="black" d="M630.36,-787.19C627.47,-786.37 624.59,-785.62 621.75,-785 415.97,-739.69 354.17,-783.55 143,-749.19"/>
<polygon fill="black" stroke="black" points="143.79,-745.77 133.35,-747.57 142.63,-752.68 143.79,-745.77"/>
</g>
<!-- n49&#45;&gt;n102 -->
<g id="edge24" class="edge">
<title>n49&#45;&gt;n102</title>
<path fill="none" stroke="black" d="M703.76,-784.52C736.64,-757.58 786.75,-707.18 786.75,-650.25 786.75,-650.25 786.75,-650.25 786.75,-491.25 786.75,-446.56 779.4,-428.6 805.75,-392.5 814.79,-380.12 827.41,-370.16 840.73,-362.26"/>
<polygon fill="black" stroke="black" points="842.11,-365.49 849.18,-357.6 838.74,-359.36 842.11,-365.49"/>
</g>
<!-- staged -->
<g id="node31" class="node">
<title>staged</title>
<path fill="white" stroke="black" d="M1289.62,-42.5C1289.62,-42.5 1173.88,-42.5 1173.88,-42.5 1167.88,-42.5 1161.88,-36.5 1161.88,-30.5 1161.88,-30.5 1161.88,-12 1161.88,-12 1161.88,-6 1167.88,0 1173.88,0 1173.88,0 1289.62,0 1289.62,0 1295.62,0 1301.62,-6 1301.62,-12 1301.62,-12 1301.62,-30.5 1301.62,-30.5 1301.62,-36.5 1295.62,-42.5 1289.62,-42.5"/>
<text xml:space="preserve" text-anchor="middle" x="1231.75" y="-25.2" font-family="monospace" font-size="14.00">staged</text>
<text xml:space="preserve" text-anchor="middle" x="1231.75" y="-7.95" font-family="monospace" font-size="14.00">pair(logp, n49)</text>
</g>
<!-- n49&#45;&gt;staged -->
<g id="edge37" class="edge">
<title>n49&#45;&gt;staged</title>
<path fill="none" stroke="black" d="M721.16,-804.76C874.52,-801.9 1363.75,-782.41 1363.75,-650.25 1363.75,-650.25 1363.75,-650.25 1363.75,-177.25 1363.75,-122.02 1314.57,-76.46 1276.25,-49.35"/>
<polygon fill="black" stroke="black" points="1278.25,-46.48 1268.03,-43.72 1274.3,-52.26 1278.25,-46.48"/>
</g>
<!-- n62 -->
<g id="node20" class="node">
<title>n62</title>
<path fill="white" stroke="black" d="M617.88,-356.5C617.88,-356.5 551.62,-356.5 551.62,-356.5 545.62,-356.5 539.62,-350.5 539.62,-344.5 539.62,-344.5 539.62,-326 539.62,-326 539.62,-320 545.62,-314 551.62,-314 551.62,-314 617.88,-314 617.88,-314 623.88,-314 629.88,-320 629.88,-326 629.88,-326 629.88,-344.5 629.88,-344.5 629.88,-350.5 623.88,-356.5 617.88,-356.5"/>
<text xml:space="preserve" text-anchor="middle" x="584.75" y="-339.2" font-family="monospace" font-size="14.00">n62</text>
<text xml:space="preserve" text-anchor="middle" x="584.75" y="-321.95" font-family="monospace" font-size="14.00">n61 + n50</text>
</g>
<!-- n50&#45;&gt;n62 -->
<g id="edge21" class="edge">
<title>n50&#45;&gt;n62</title>
<path fill="none" stroke="black" d="M645.27,-470.74C639.08,-460.22 631.68,-447.11 625.75,-435 614.85,-412.74 604.16,-386.83 596.44,-367.14"/>
<polygon fill="black" stroke="black" points="599.78,-366.09 592.9,-358.03 593.26,-368.62 599.78,-366.09"/>
</g>
<!-- n52 -->
<g id="node10" class="node">
<title>n52</title>
<path fill="white" stroke="black" d="M553,-670.5C553,-670.5 478.5,-670.5 478.5,-670.5 472.5,-670.5 466.5,-664.5 466.5,-658.5 466.5,-658.5 466.5,-640 466.5,-640 466.5,-634 472.5,-628 478.5,-628 478.5,-628 553,-628 553,-628 559,-628 565,-634 565,-640 565,-640 565,-658.5 565,-658.5 565,-664.5 559,-670.5 553,-670.5"/>
<text xml:space="preserve" text-anchor="middle" x="515.75" y="-653.2" font-family="monospace" font-size="14.00">n52</text>
<text xml:space="preserve" text-anchor="middle" x="515.75" y="-635.95" font-family="monospace" font-size="14.00">prior(n51)</text>
</g>
<!-- n51&#45;&gt;n52 -->
<g id="edge6" class="edge">
<title>n51&#45;&gt;n52</title>
<path fill="none" stroke="black" d="M626.62,-706.05C608.28,-696.82 586.49,-685.85 567.1,-676.1"/>
<polygon fill="black" stroke="black" points="568.77,-673.02 558.27,-671.65 565.63,-679.27 568.77,-673.02"/>
</g>
<!-- prior_n52 -->
<g id="node9" class="node">
<title>prior_n52</title>
<polygon fill="lavender" stroke="black" points="596.12,-749 427.38,-749 423.38,-745 423.38,-706.5 592.12,-706.5 596.12,-710.5 596.12,-749"/>
<polyline fill="none" stroke="black" points="592.12,-745 423.38,-745"/>
<polyline fill="none" stroke="black" points="592.12,-745 592.12,-706.5"/>
<polyline fill="none" stroke="black" points="592.12,-745 596.12,-749"/>
<text xml:space="preserve" text-anchor="middle" x="509.75" y="-731.7" font-family="monospace" font-size="14.00">prior_n52: subgraph</text>
<text xml:space="preserve" text-anchor="middle" x="509.75" y="-714.45" font-family="monospace" font-size="14.00">(8 nodes)</text>
</g>
<!-- prior_n52&#45;&gt;n52 -->
<g id="edge5" class="edge">
<title>prior_n52&#45;&gt;n52</title>
<path fill="none" stroke="black" d="M511.36,-706.25C511.94,-698.87 512.6,-690.37 513.24,-682.25"/>
<polygon fill="black" stroke="black" points="516.73,-682.56 514.02,-672.32 509.75,-682.01 516.73,-682.56"/>
</g>
<!-- n61 -->
<g id="node19" class="node">
<title>n61</title>
<path fill="white" stroke="black" d="M548.88,-435C548.88,-435 482.62,-435 482.62,-435 476.62,-435 470.62,-429 470.62,-423 470.62,-423 470.62,-404.5 470.62,-404.5 470.62,-398.5 476.62,-392.5 482.62,-392.5 482.62,-392.5 548.88,-392.5 548.88,-392.5 554.88,-392.5 560.88,-398.5 560.88,-404.5 560.88,-404.5 560.88,-423 560.88,-423 560.88,-429 554.88,-435 548.88,-435"/>
<text xml:space="preserve" text-anchor="middle" x="515.75" y="-417.7" font-family="monospace" font-size="14.00">n61</text>
<text xml:space="preserve" text-anchor="middle" x="515.75" y="-400.45" font-family="monospace" font-size="14.00">n60 + n52</text>
</g>
<!-- n52&#45;&gt;n61 -->
<g id="edge19" class="edge">
<title>n52&#45;&gt;n61</title>
<path fill="none" stroke="black" d="M515.75,-627.53C515.75,-586.68 515.75,-495.51 515.75,-446.83"/>
<polygon fill="black" stroke="black" points="519.25,-446.94 515.75,-436.94 512.25,-446.94 519.25,-446.94"/>
</g>
<!-- n57 -->
<g id="node15" class="node">
<title>n57</title>
<path fill="white" stroke="black" d="M368.88,-670.5C368.88,-670.5 302.62,-670.5 302.62,-670.5 296.62,-670.5 290.62,-664.5 290.62,-658.5 290.62,-658.5 290.62,-640 290.62,-640 290.62,-634 296.62,-628 302.62,-628 302.62,-628 368.88,-628 368.88,-628 374.88,-628 380.88,-634 380.88,-640 380.88,-640 380.88,-658.5 380.88,-658.5 380.88,-664.5 374.88,-670.5 368.88,-670.5"/>
<text xml:space="preserve" text-anchor="middle" x="335.75" y="-653.2" font-family="monospace" font-size="14.00">n57</text>
<text xml:space="preserve" text-anchor="middle" x="335.75" y="-635.95" font-family="monospace" font-size="14.00">0.5 * n53</text>
</g>
<!-- n53&#45;&gt;n57 -->
<g id="edge13" class="edge">
<title>n53&#45;&gt;n57</title>
<path fill="none" stroke="black" d="M335.75,-706.25C335.75,-698.87 335.75,-690.37 335.75,-682.25"/>
<polygon fill="black" stroke="black" points="339.25,-682.32 335.75,-672.32 332.25,-682.32 339.25,-682.32"/>
</g>
<!-- n56 -->
<g id="node14" class="node">
<title>n56</title>
<path fill="white" stroke="black" d="M231.88,-670.5C231.88,-670.5 165.62,-670.5 165.62,-670.5 159.62,-670.5 153.62,-664.5 153.62,-658.5 153.62,-658.5 153.62,-640 153.62,-640 153.62,-634 159.62,-628 165.62,-628 165.62,-628 231.88,-628 231.88,-628 237.88,-628 243.88,-634 243.88,-640 243.88,-640 243.88,-658.5 243.88,-658.5 243.88,-664.5 237.88,-670.5 231.88,-670.5"/>
<text xml:space="preserve" text-anchor="middle" x="198.75" y="-653.2" font-family="monospace" font-size="14.00">n56</text>
<text xml:space="preserve" text-anchor="middle" x="198.75" y="-635.95" font-family="monospace" font-size="14.00">n55 + n54</text>
</g>
<!-- n54&#45;&gt;n56 -->
<g id="edge12" class="edge">
<title>n54&#45;&gt;n56</title>
<path fill="none" stroke="black" d="M101.74,-706.05C117.56,-696.95 136.32,-686.16 153.11,-676.5"/>
<polygon fill="black" stroke="black" points="154.49,-679.74 161.42,-671.72 151,-673.68 154.49,-679.74"/>
</g>
<!-- n55 -->
<g id="node13" class="node">
<title>n55</title>
<path fill="lightgreen" stroke="black" d="M236,-749C236,-749 161.5,-749 161.5,-749 155.5,-749 149.5,-743 149.5,-737 149.5,-737 149.5,-718.5 149.5,-718.5 149.5,-712.5 155.5,-706.5 161.5,-706.5 161.5,-706.5 236,-706.5 236,-706.5 242,-706.5 248,-712.5 248,-718.5 248,-718.5 248,-737 248,-737 248,-743 242,-749 236,-749"/>
<text xml:space="preserve" text-anchor="middle" x="198.75" y="-731.7" font-family="monospace" font-size="14.00">n55: const</text>
<text xml:space="preserve" text-anchor="middle" x="198.75" y="-714.45" font-family="monospace" font-size="14.00">array()</text>
</g>
<!-- n55&#45;&gt;n56 -->
<g id="edge11" class="edge">
<title>n55&#45;&gt;n56</title>
<path fill="none" stroke="black" d="M198.75,-706.25C198.75,-698.87 198.75,-690.37 198.75,-682.25"/>
<polygon fill="black" stroke="black" points="202.25,-682.32 198.75,-672.32 195.25,-682.32 202.25,-682.32"/>
</g>
<!-- n58 -->
<g id="node16" class="node">
<title>n58</title>
<path fill="white" stroke="black" d="M368.88,-592C368.88,-592 302.62,-592 302.62,-592 296.62,-592 290.62,-586 290.62,-580 290.62,-580 290.62,-561.5 290.62,-561.5 290.62,-555.5 296.62,-549.5 302.62,-549.5 302.62,-549.5 368.88,-549.5 368.88,-549.5 374.88,-549.5 380.88,-555.5 380.88,-561.5 380.88,-561.5 380.88,-580 380.88,-580 380.88,-586 374.88,-592 368.88,-592"/>
<text xml:space="preserve" text-anchor="middle" x="335.75" y="-574.7" font-family="monospace" font-size="14.00">n58</text>
<text xml:space="preserve" text-anchor="middle" x="335.75" y="-557.45" font-family="monospace" font-size="14.00">n56 &#45; n57</text>
</g>
<!-- n56&#45;&gt;n58 -->
<g id="edge14" class="edge">
<title>n56&#45;&gt;n58</title>
<path fill="none" stroke="black" d="M235.82,-627.55C252.12,-618.45 271.45,-607.66 288.74,-598"/>
<polygon fill="black" stroke="black" points="290.3,-601.14 297.32,-593.21 286.89,-595.03 290.3,-601.14"/>
</g>
<!-- n57&#45;&gt;n58 -->
<g id="edge15" class="edge">
<title>n57&#45;&gt;n58</title>
<path fill="none" stroke="black" d="M335.75,-627.75C335.75,-620.37 335.75,-611.87 335.75,-603.75"/>
<polygon fill="black" stroke="black" points="339.25,-603.82 335.75,-593.82 332.25,-603.82 339.25,-603.82"/>
</g>
<!-- n60 -->
<g id="node18" class="node">
<title>n60</title>
<path fill="white" stroke="black" d="M368.88,-513.5C368.88,-513.5 302.62,-513.5 302.62,-513.5 296.62,-513.5 290.62,-507.5 290.62,-501.5 290.62,-501.5 290.62,-483 290.62,-483 290.62,-477 296.62,-471 302.62,-471 302.62,-471 368.88,-471 368.88,-471 374.88,-471 380.88,-477 380.88,-483 380.88,-483 380.88,-501.5 380.88,-501.5 380.88,-507.5 374.88,-513.5 368.88,-513.5"/>
<text xml:space="preserve" text-anchor="middle" x="335.75" y="-496.2" font-family="monospace" font-size="14.00">n60</text>
<text xml:space="preserve" text-anchor="middle" x="335.75" y="-478.95" font-family="monospace" font-size="14.00">n58 &#45; n59</text>
</g>
<!-- n58&#45;&gt;n60 -->
<g id="edge16" class="edge">
<title>n58&#45;&gt;n60</title>
<path fill="none" stroke="black" d="M335.75,-549.25C335.75,-541.87 335.75,-533.37 335.75,-525.25"/>
<polygon fill="black" stroke="black" points="339.25,-525.32 335.75,-515.32 332.25,-525.32 339.25,-525.32"/>
</g>
<!-- n59 -->
<g id="node17" class="node">
<title>n59</title>
<path fill="lightgreen" stroke="black" d="M261,-592C261,-592 186.5,-592 186.5,-592 180.5,-592 174.5,-586 174.5,-580 174.5,-580 174.5,-561.5 174.5,-561.5 174.5,-555.5 180.5,-549.5 186.5,-549.5 186.5,-549.5 261,-549.5 261,-549.5 267,-549.5 273,-555.5 273,-561.5 273,-561.5 273,-580 273,-580 273,-586 267,-592 261,-592"/>
<text xml:space="preserve" text-anchor="middle" x="223.75" y="-574.7" font-family="monospace" font-size="14.00">n59: const</text>
<text xml:space="preserve" text-anchor="middle" x="223.75" y="-557.45" font-family="monospace" font-size="14.00">array()</text>
</g>
<!-- n59&#45;&gt;n60 -->
<g id="edge17" class="edge">
<title>n59&#45;&gt;n60</title>
<path fill="none" stroke="black" d="M254.06,-549.05C267.01,-540.2 282.3,-529.76 296.12,-520.32"/>
<polygon fill="black" stroke="black" points="297.88,-523.35 304.17,-514.82 293.94,-517.57 297.88,-523.35"/>
</g>
<!-- n60&#45;&gt;n61 -->
<g id="edge18" class="edge">
<title>n60&#45;&gt;n61</title>
<path fill="none" stroke="black" d="M381.17,-471.95C405.05,-461.8 434.52,-449.27 459.8,-438.53"/>
<polygon fill="black" stroke="black" points="461.12,-441.77 468.95,-434.64 458.38,-435.33 461.12,-441.77"/>
</g>
<!-- n61&#45;&gt;n62 -->
<g id="edge20" class="edge">
<title>n61&#45;&gt;n62</title>
<path fill="none" stroke="black" d="M534.24,-392.25C541.74,-383.93 550.54,-374.17 558.68,-365.16"/>
<polygon fill="black" stroke="black" points="561.1,-367.7 565.19,-357.93 555.9,-363.01 561.1,-367.7"/>
</g>
<!-- n104 -->
<g id="node27" class="node">
<title>n104</title>
<path fill="white" stroke="black" d="M763,-278C763,-278 688.5,-278 688.5,-278 682.5,-278 676.5,-272 676.5,-266 676.5,-266 676.5,-247.5 676.5,-247.5 676.5,-241.5 682.5,-235.5 688.5,-235.5 688.5,-235.5 763,-235.5 763,-235.5 769,-235.5 775,-241.5 775,-247.5 775,-247.5 775,-266 775,-266 775,-272 769,-278 763,-278"/>
<text xml:space="preserve" text-anchor="middle" x="725.75" y="-260.7" font-family="monospace" font-size="14.00">n104</text>
<text xml:space="preserve" text-anchor="middle" x="725.75" y="-243.45" font-family="monospace" font-size="14.00">n62 + n101</text>
</g>
<!-- n62&#45;&gt;n104 -->
<g id="edge29" class="edge">
<title>n62&#45;&gt;n104</title>
<path fill="none" stroke="black" d="M622.91,-313.55C639.84,-304.36 659.94,-293.46 677.86,-283.73"/>
<polygon fill="black" stroke="black" points="679.11,-287.04 686.23,-279.19 675.77,-280.88 679.11,-287.04"/>
</g>
<!-- n78 -->
<g id="node21" class="node">
<title>n78</title>
<path fill="lightgreen" stroke="black" d="M746.38,-435C746.38,-435 647.12,-435 647.12,-435 641.12,-435 635.12,-429 635.12,-423 635.12,-423 635.12,-404.5 635.12,-404.5 635.12,-398.5 641.12,-392.5 647.12,-392.5 647.12,-392.5 746.38,-392.5 746.38,-392.5 752.38,-392.5 758.38,-398.5 758.38,-404.5 758.38,-404.5 758.38,-423 758.38,-423 758.38,-429 752.38,-435 746.38,-435"/>
<text xml:space="preserve" text-anchor="middle" x="696.75" y="-417.7" font-family="monospace" font-size="14.00">n78: const</text>
<text xml:space="preserve" text-anchor="middle" x="696.75" y="-400.45" font-family="monospace" font-size="14.00">array(5, 120)</text>
</g>
<!-- n78&#45;&gt;n101 -->
<g id="edge23" class="edge">
<title>n78&#45;&gt;n101</title>
<path fill="none" stroke="black" d="M704.52,-392.25C707.41,-384.62 710.77,-375.77 713.94,-367.4"/>
<polygon fill="black" stroke="black" points="717.15,-368.81 717.42,-358.22 710.6,-366.33 717.15,-368.81"/>
</g>
<!-- n89 -->
<g id="node22" class="node">
<title>n89</title>
<path fill="lightgreen" stroke="black" d="M958.88,-435C958.88,-435 826.62,-435 826.62,-435 820.62,-435 814.62,-429 814.62,-423 814.62,-423 814.62,-404.5 814.62,-404.5 814.62,-398.5 820.62,-392.5 826.62,-392.5 826.62,-392.5 958.88,-392.5 958.88,-392.5 964.88,-392.5 970.88,-398.5 970.88,-404.5 970.88,-404.5 970.88,-423 970.88,-423 970.88,-429 964.88,-435 958.88,-435"/>
<text xml:space="preserve" text-anchor="middle" x="892.75" y="-417.7" font-family="monospace" font-size="14.00">n89: const</text>
<text xml:space="preserve" text-anchor="middle" x="892.75" y="-400.45" font-family="monospace" font-size="14.00">array(5, 88, 120)</text>
</g>
<!-- n89&#45;&gt;n102 -->
<g id="edge25" class="edge">
<title>n89&#45;&gt;n102</title>
<path fill="none" stroke="black" d="M897.04,-392.25C898.6,-384.79 900.4,-376.17 902.12,-367.97"/>
<polygon fill="black" stroke="black" points="905.52,-368.79 904.14,-358.29 898.67,-367.36 905.52,-368.79"/>
</g>
<!-- n100 -->
<g id="node23" class="node">
<title>n100</title>
<path fill="lightgreen" stroke="black" d="M1324,-435C1324,-435 1183.5,-435 1183.5,-435 1177.5,-435 1171.5,-429 1171.5,-423 1171.5,-423 1171.5,-404.5 1171.5,-404.5 1171.5,-398.5 1177.5,-392.5 1183.5,-392.5 1183.5,-392.5 1324,-392.5 1324,-392.5 1330,-392.5 1336,-398.5 1336,-404.5 1336,-404.5 1336,-423 1336,-423 1336,-429 1330,-435 1324,-435"/>
<text xml:space="preserve" text-anchor="middle" x="1253.75" y="-417.7" font-family="monospace" font-size="14.00">n100: const</text>
<text xml:space="preserve" text-anchor="middle" x="1253.75" y="-400.45" font-family="monospace" font-size="14.00">array(5, 120, 120)</text>
</g>
<!-- n100&#45;&gt;n103 -->
<g id="edge28" class="edge">
<title>n100&#45;&gt;n103</title>
<path fill="none" stroke="black" d="M1230.44,-392.25C1220.68,-383.67 1209.19,-373.57 1198.67,-364.32"/>
<polygon fill="black" stroke="black" points="1201.09,-361.78 1191.27,-357.81 1196.46,-367.04 1201.09,-361.78"/>
</g>
<!-- n101&#45;&gt;n104 -->
<g id="edge30" class="edge">
<title>n101&#45;&gt;n104</title>
<path fill="none" stroke="black" d="M725.75,-313.75C725.75,-306.37 725.75,-297.87 725.75,-289.75"/>
<polygon fill="black" stroke="black" points="729.25,-289.82 725.75,-279.82 722.25,-289.82 729.25,-289.82"/>
</g>
<!-- n105 -->
<g id="node28" class="node">
<title>n105</title>
<path fill="white" stroke="black" d="M950.12,-199.5C950.12,-199.5 867.38,-199.5 867.38,-199.5 861.38,-199.5 855.38,-193.5 855.38,-187.5 855.38,-187.5 855.38,-169 855.38,-169 855.38,-163 861.38,-157 867.38,-157 867.38,-157 950.12,-157 950.12,-157 956.12,-157 962.12,-163 962.12,-169 962.12,-169 962.12,-187.5 962.12,-187.5 962.12,-193.5 956.12,-199.5 950.12,-199.5"/>
<text xml:space="preserve" text-anchor="middle" x="908.75" y="-182.2" font-family="monospace" font-size="14.00">n105</text>
<text xml:space="preserve" text-anchor="middle" x="908.75" y="-164.95" font-family="monospace" font-size="14.00">n104 &#45; n102</text>
</g>
<!-- n102&#45;&gt;n105 -->
<g id="edge32" class="edge">
<title>n102&#45;&gt;n105</title>
<path fill="none" stroke="black" d="M908.75,-313.67C908.75,-287.5 908.75,-242.02 908.75,-211.3"/>
<polygon fill="black" stroke="black" points="912.25,-211.43 908.75,-201.43 905.25,-211.43 912.25,-211.43"/>
</g>
<!-- n106 -->
<g id="node29" class="node">
<title>n106</title>
<path fill="white" stroke="black" d="M1204,-199.5C1204,-199.5 1129.5,-199.5 1129.5,-199.5 1123.5,-199.5 1117.5,-193.5 1117.5,-187.5 1117.5,-187.5 1117.5,-169 1117.5,-169 1117.5,-163 1123.5,-157 1129.5,-157 1129.5,-157 1204,-157 1204,-157 1210,-157 1216,-163 1216,-169 1216,-169 1216,-187.5 1216,-187.5 1216,-193.5 1210,-199.5 1204,-199.5"/>
<text xml:space="preserve" text-anchor="middle" x="1166.75" y="-182.2" font-family="monospace" font-size="14.00">n106</text>
<text xml:space="preserve" text-anchor="middle" x="1166.75" y="-164.95" font-family="monospace" font-size="14.00">0.5 * n103</text>
</g>
<!-- n103&#45;&gt;n106 -->
<g id="edge33" class="edge">
<title>n103&#45;&gt;n106</title>
<path fill="none" stroke="black" d="M1166.75,-313.67C1166.75,-287.5 1166.75,-242.02 1166.75,-211.3"/>
<polygon fill="black" stroke="black" points="1170.25,-211.43 1166.75,-201.43 1163.25,-211.43 1170.25,-211.43"/>
</g>
<!-- n104&#45;&gt;n105 -->
<g id="edge31" class="edge">
<title>n104&#45;&gt;n105</title>
<path fill="none" stroke="black" d="M775.27,-235.05C797.96,-225.57 825.03,-214.25 848.85,-204.29"/>
<polygon fill="black" stroke="black" points="849.92,-207.64 857.79,-200.55 847.22,-201.18 849.92,-207.64"/>
</g>
<!-- logp -->
<g id="node30" class="node">
<title>logp</title>
<path fill="white" stroke="black" d="M1208.12,-121C1208.12,-121 1125.38,-121 1125.38,-121 1119.38,-121 1113.38,-115 1113.38,-109 1113.38,-109 1113.38,-90.5 1113.38,-90.5 1113.38,-84.5 1119.38,-78.5 1125.38,-78.5 1125.38,-78.5 1208.12,-78.5 1208.12,-78.5 1214.12,-78.5 1220.12,-84.5 1220.12,-90.5 1220.12,-90.5 1220.12,-109 1220.12,-109 1220.12,-115 1214.12,-121 1208.12,-121"/>
<text xml:space="preserve" text-anchor="middle" x="1166.75" y="-103.7" font-family="monospace" font-size="14.00">logp</text>
<text xml:space="preserve" text-anchor="middle" x="1166.75" y="-86.45" font-family="monospace" font-size="14.00">n105 &#45; n106</text>
</g>
<!-- n105&#45;&gt;logp -->
<g id="edge34" class="edge">
<title>n105&#45;&gt;logp</title>
<path fill="none" stroke="black" d="M962.52,-161.31C1003.14,-149.26 1059.06,-132.68 1102.12,-119.91"/>
<polygon fill="black" stroke="black" points="1103,-123.3 1111.6,-117.1 1101.01,-116.59 1103,-123.3"/>
</g>
<!-- n106&#45;&gt;logp -->
<g id="edge35" class="edge">
<title>n106&#45;&gt;logp</title>
<path fill="none" stroke="black" d="M1166.75,-156.75C1166.75,-149.37 1166.75,-140.87 1166.75,-132.75"/>
<polygon fill="black" stroke="black" points="1170.25,-132.82 1166.75,-122.82 1163.25,-132.82 1170.25,-132.82"/>
</g>
<!-- logp&#45;&gt;staged -->
<g id="edge36" class="edge">
<title>logp&#45;&gt;staged</title>
<path fill="none" stroke="black" d="M1184.17,-78.25C1191.16,-70.02 1199.36,-60.38 1206.95,-51.44"/>
<polygon fill="black" stroke="black" points="1209.5,-53.85 1213.3,-43.96 1204.16,-49.31 1209.5,-53.85"/>
</g>
</g>
</svg>